<svg id="Layer_1_copy_3" data-name="Layer 1 copy 3" xmlns="http://www.w3.org/2000/svg" viewBox="0 0 29.7 29.7"><defs><style>.cls-1{fill:#91dc47;}.cls-2{fill:#63b132;}.cls-3{fill:#90b4fe;}.cls-4{fill:#5881d8;}</style></defs><title>_01_languages logos [Recovered]</title><path id="path10" class="cls-1" d="M14.27,15.22l-.43,1a24.27,24.27,0,0,0-1.35,3.65A5.48,5.48,0,0,0,12.36,21c0,.18,0,.38,0,.57a7,7,0,0,0,4.66.07,4.19,4.19,0,0,1-.47-.49c-1-1.21-1.48-3-2.32-6"/><path id="path12" class="cls-1" d="M10.76,9.2a7.06,7.06,0,0,0-.08,11.5c.43-1.81,1.52-3.46,3.15-6.78-.1-.27-.21-.56-.33-.86a10.79,10.79,0,0,0-1.69-3,4.69,4.69,0,0,0-1.05-.81"/><path id="path14" class="cls-2" d="M21,23.09a11.5,11.5,0,0,1-2.39-.5,8.49,8.49,0,0,1-9.37-14,6.24,6.24,0,0,0-1.48-.18c-2.49,0-5.12,1.4-6.22,5.13A7,7,0,0,0,1.45,15a13.37,13.37,0,0,0,24.31,7.69,15.58,15.58,0,0,1-3.64.49A9.39,9.39,0,0,1,21,23.09"/><path id="path16" class="cls-3" d="M18.47,20.47a3.73,3.73,0,0,0,.53.18A7.07,7.07,0,0,0,21.9,15h0a7.06,7.06,0,0,0-9.29-6.71c1.44,1.64,2.13,4,2.79,6.53h0s.21.71.58,1.65a16.31,16.31,0,0,0,1.44,2.95,3.09,3.09,0,0,0,1.05,1.09"/><path id="path18" class="cls-4" d="M14.83,1.58A13.35,13.35,0,0,0,4,7.16,6.79,6.79,0,0,1,7.64,6.1,7.19,7.19,0,0,1,11,6.91l.41.26A8.5,8.5,0,0,1,23.32,15h0a8.47,8.47,0,0,1-2.53,6,10.43,10.43,0,0,0,1.21.07,6.6,6.6,0,0,0,4.28-1.34,5.65,5.65,0,0,0,1.8-3.07A13.35,13.35,0,0,0,14.83,1.58"/></svg>