<svg width="600" height="201" viewBox="0 0 600 201" fill="none" xmlns="http://www.w3.org/2000/svg">
<path d="M249.3 11.0999C252.8 11.0999 255.9 11.3998 258.7 12.4998C261.5 13.4998 263.6 14.8998 265.3 16.6998C267 18.3998 268.1 20.8999 269.1 23.2999C269.8 25.6999 270.1 28.4998 269.8 31.2998L254.8 34.0999C254.8 31.6999 254.1 29.8998 253.4 28.1998C252.4 26.7998 251.3 25.7999 249.6 25.7999C248.6 25.7999 247.9 26.0998 247.2 26.4998C246.5 26.7998 246.2 27.4998 245.8 27.8998C244.8 28.8998 244.4 29.5999 244.4 30.2999C244.4 30.9999 244.1 31.6998 244.1 31.9998V72.7998C244.1 73.7998 244.4 74.8998 244.8 75.8998C245.5 76.8998 246.5 77.2998 248.6 77.2998C250 77.2998 251.4 76.9998 252.4 76.2998C253.4 75.5998 253.8 74.5999 253.8 73.1999V60.9998H248.6V47.3998H269.5V72.1999C269.5 78.7999 267.8 83.6999 264.3 87.1999C260.8 90.6999 255.9 92.3998 249.3 92.3998C242 92.3998 236.7 90.6998 233.6 87.4998C230.5 83.9998 228.7 79.0998 228.7 72.4998V31.9998C228.7 25.6998 230.4 20.4999 233.9 16.5999C237.4 13.1999 242.6 11.0999 249.3 11.0999ZM276.2 91.6999V11.7999H312.9V26.7999H292V43.8998H310.5V58.8998H292V76.9998H312.9V91.9998H276.2V91.6999ZM347 49.4998V11.7999H362.4V91.6999H349.1L339.7 68.2998L334.1 53.2998H333.4V91.6999H317.7V11.7999H331.3L340.7 34.7998L345.9 49.4998H347ZM370.7 91.6999V11.7999H407.4V26.7999H386.5V43.8998H405V58.8998H386.5V76.9998H407.4V91.9998H370.8V91.6999H370.7ZM431.8 11.7999C434.9 11.7999 438.1 12.0999 440.9 12.7999C443.7 13.4999 446.1 14.8998 447.9 16.9998C450 18.6998 451.4 21.1999 452.4 24.2999C453.4 27.3999 454.1 30.8998 454.1 35.4998C454.1 41.0998 453.4 45.2998 452 48.7998C450.6 52.2998 448.2 55.0999 445.4 57.1999L456.9 91.7998H440.8L431.4 60.6999H428.3V91.7998H412.6V11.8998L431.8 11.7999ZM428.7 26.7999V45.5999H431.1C432.1 45.5999 433.2 45.5998 434.2 45.2998C435.2 44.9998 435.9 44.5998 437 43.8998C437.7 43.1998 438.4 42.1998 438.7 40.7998C439 39.3998 439.4 37.9998 439.4 35.8998C439.4 32.7998 438.7 30.6999 437.3 29.2999C435.9 27.8999 433.8 27.1998 431.4 27.1998H428.6C428.7 27.0998 428.7 26.7999 428.7 26.7999Z" fill="#C2C8CC"/>
<path d="M487.3 75.9998H475.4L473 91.6998H456.6L471.6 11.7998H490.8L506.2 91.6998H489.8L487.3 75.9998ZM479.3 48.7998L477.6 61.3998H484.9L483.5 48.7998L481.8 32.6998H481L479.3 48.7998ZM510 91.6998V11.7998H525.7V76.6998H546.6V91.6998H510ZM254.2 171.6H242.3L240.2 187.3H223.8L238.8 107.4H258L273 187.3H256.6L254.2 171.6ZM246.5 144.4L244.8 157H252.1L250.7 144.4L248.6 128H247.9L246.5 144.4ZM316.6 163.9C316.6 167.7 316.3 170.9 315.6 174C314.9 177.1 313.9 179.6 312.1 181.7C310.7 183.8 308.3 185.5 305.8 186.6C303 187.6 299.9 188.3 295.7 188.3C291.9 188.3 288.7 187.6 286.3 186.6C283.5 185.6 281.4 184.2 280 182.1C278.3 180.4 277.2 177.9 276.5 175.5C275.8 173.1 275.5 170.3 275.5 167.5L291.2 164.4C291.2 167.2 291.9 169.6 292.6 171C293.3 172.4 294.7 173.1 296.8 173.1C297.8 173.1 298.9 172.8 299.6 172.4C300.3 171.7 300.6 171 301 170.3C301.3 169.6 301.7 168.6 301.7 167.2V163.7C301.7 162 301.7 160.9 301.4 159.9C301.1 158.9 300.7 157.8 300.4 157.1C299.7 156.4 299 155.7 298 155C297 154.3 295.9 154 294.2 153.3C290.4 151.6 287.2 150.2 284.8 148.4C282.4 146.7 280.6 144.9 279.2 142.8C277.8 140.7 277.1 139 276.8 136.5C276.5 134.4 276.1 132 276.1 129.2C276.1 126.1 276.4 122.9 277.1 120.1C277.8 117.3 279.2 114.9 280.6 112.8C282.3 110.7 284.4 109.3 286.9 108.3C289.7 107.3 292.8 106.6 296.3 106.6C300.1 106.6 303.6 107.3 306.1 108.3C308.5 109.7 310.6 111.1 312.4 113.2C313.8 115.3 314.8 117.4 315.5 119.8C316.2 122.2 316.5 124.3 316.5 126.8L301.1 130.3V127C301.1 126 300.8 125.3 300.4 124.2C300.1 123.5 299.4 122.8 299 122.5C298.3 122.2 297.6 121.8 296.2 121.8C295.2 121.8 294.5 122.1 293.8 122.5C293.1 122.8 292.8 123.5 292.4 124.2C292.1 124.9 291.7 125.6 291.7 126.6V129.4C291.7 130.4 291.7 131.5 292 132.2C292 132.9 292.7 133.9 293 134.6C293.7 135.3 294.4 136 295.8 136.7L300.7 139.1C304.2 140.5 307.3 142.2 309.4 143.6C311.5 145.3 313.2 147.1 314.3 148.8C315.3 150.5 316 153 316.4 155.4C316.6 158 316.6 160.8 316.6 163.9ZM363.1 163.9C363.1 167.7 362.8 170.9 362.1 174C361.4 177.1 360.4 179.6 358.6 181.7C357.2 183.8 354.8 185.5 352.3 186.6C349.5 187.6 346.4 188.3 342.2 188.3C338.4 188.3 335.2 187.6 332.8 186.6C330 185.6 327.9 184.2 326.5 182.1C324.8 180.4 323.7 177.9 323 175.5C322.3 173.1 322 170.3 322 167.5L337.7 164.4C337.7 167.2 338.4 169.6 339.1 171C339.8 172.4 341.2 173.1 343.3 173.1C344.3 173.1 345.4 172.8 346.1 172.4C346.8 171.7 347.1 171 347.5 170.3C347.8 169.6 348.2 168.6 348.2 167.2V163.7C348.2 162 348.2 160.9 347.9 159.9C347.6 158.9 347.2 157.8 346.9 157.1C346.2 156.4 345.5 155.7 344.5 155C343.5 154.3 342.4 154 340.7 153.3C336.9 151.6 333.7 150.2 331.3 148.4C328.9 146.7 327.1 144.9 325.7 142.8C324.3 140.7 323.6 139 323.3 136.5C323 134.4 322.6 132 322.6 129.2C322.6 126.1 322.9 122.9 323.6 120.1C324.3 117.3 325.7 114.9 327.1 112.8C328.8 110.7 330.9 109.3 333.4 108.3C336.2 107.3 339.3 106.6 342.8 106.6C346.6 106.6 350.1 107.3 352.6 108.3C355 109.7 357.1 111.1 358.9 113.2C360.3 115.3 361.3 117.4 362 119.8C362.7 122.2 363 124.3 363 126.8L347.6 130.3V127C347.6 126 347.3 125.3 346.9 124.2C346.6 123.5 345.9 122.8 345.5 122.5C344.8 122.2 344.1 121.8 342.7 121.8C341.7 121.8 341 122.1 340.3 122.5C339.6 122.8 339.3 123.5 338.9 124.2C338.6 124.9 338.2 125.6 338.2 126.6V129.4C338.2 130.4 338.2 131.5 338.5 132.2C338.5 132.9 339.2 133.9 339.5 134.6C340.2 135.3 340.9 136 342.3 136.7L347.2 139.1C350.7 140.5 353.8 142.2 355.9 143.6C358 145.3 359.7 147.1 360.8 148.8C361.8 150.5 362.5 153 362.9 155.4C362.7 158 363.1 160.8 363.1 163.9ZM369.3 187.3V107.4H406V122.4H385.1V139.5H403.6V154.5H385.1V172.6H406V187.3H369.3ZM434.3 171.6L430.8 161.5L427.3 149.6H426.6V187.3H410.9V107.4H425.6L433.6 128.7L438.8 144.4H439.5L445.1 128.3L452.8 107.4H467.5V187.3H451.8V150H451.5L447.7 162.2L444.6 171.6H434.3ZM506.2 145.4C507.9 146.1 509.7 146.8 510.7 148.2C511.7 149.2 512.8 150.6 513.5 152C514.2 153.4 514.9 155.1 514.9 156.9C515.2 158.6 515.2 160.4 515.2 162.1C515.2 170.8 513.5 177.1 509.6 180.9C505.8 185.1 500.2 186.8 492.8 186.8H475V107.2H493.1C500.1 107.2 505.7 108.9 509.2 112.8C512.7 116.6 514.4 122.2 514.4 129.6C514.4 131.3 514.4 132.7 514.1 134.5C513.8 136.2 513.4 137.6 512.7 139C512 140.4 511 141.4 509.9 142.8C509 144.1 507.6 144.8 506.2 145.4ZM499.9 130.1C499.9 127 499.2 124.9 498.2 123.8C497.2 122.8 495.1 122.4 492.6 122.4H490.9V138.1H493C497.8 138.1 499.9 135.7 499.9 130.1ZM500.6 161.5C500.6 158.4 499.9 155.9 498.9 154.9C497.9 153.5 496.1 152.8 494 152.8H491.2V172.7H494C495.4 172.7 496.8 172.4 497.5 172C498.5 171.3 498.9 170.6 499.6 169.6C499.9 168.6 500.3 167.5 500.6 166.1V161.5ZM524 187.3V107.4H539.7V172.3H560.6V187.3H524V187.3ZM577 136.7L579.8 123.4L583.3 107.7H599.7L584.3 155.2V187.3H568.6V154.8L552.9 107.3H569.7L573.5 123.4L576.3 136.7H577V136.7Z" fill="#C2C8CC"/>
<path d="M191 100.1C191 96.2999 194.1 93.0999 198 92.7999C197.7 88.9999 197.3 84.7999 196.6 80.8999C192.8 81.8999 188.9 79.4999 187.9 75.9999C186.9 72.1999 189.3 68.2999 192.8 67.2999C191.4 63.4999 190 59.9999 188.3 56.4999C184.8 58.5999 180.6 57.1999 178.5 54.0999C176.4 50.5999 177.8 46.3999 180.9 44.2999C178.8 41.1999 176.4 37.9999 173.6 34.8999C170.8 37.6999 166.3 37.6999 163.5 34.8999C160.7 32.0999 160.7 27.5999 163.5 24.7999C160.7 22.3999 157.6 19.8999 154.1 17.4999C152 20.9999 147.8 21.9999 144.3 19.8999C140.8 17.7999 139.8 13.5999 141.9 10.0999C138.4 8.39991 134.9 6.99991 131.1 5.59991C130.1 9.39991 126.2 11.4999 122.4 10.4999C118.6 9.49991 116.5 5.59991 117.5 1.79991C113.7 1.09991 109.8 0.399902 106 0.399902C106 4.1999 102.9 7.69991 99 7.69991C95.2 7.69991 92 4.5999 92 0.399902C88.2 0.699902 84.3 1.09991 80.5 1.79991C81.5 5.59991 79.5 9.49991 75.6 10.4999C71.8 11.4999 67.9 9.09991 66.9 5.59991C63.1 6.99991 59.6 8.39991 56.1 10.0999C58.2 13.5999 56.8 17.7999 53.7 19.8999C50.2 21.9999 46 20.5999 43.9 17.4999C40.8 19.5999 37.6 21.9999 34.5 24.7999C37.3 27.5999 37.3 32.0999 34.5 34.8999C31.7 37.6999 27.2 37.6999 24.4 34.8999L17.1 44.2999C20.6 46.3999 21.6 50.5999 19.5 54.0999C17.4 57.5999 13.2 58.5999 9.7 56.8999C8 60.3999 6.6 64.1999 5.2 67.6999C9 68.6999 11.1 72.5999 10.1 76.3999C9.1 80.1999 5.2 82.2999 1.4 81.2999C0.7 85.0999 0 88.9999 0 93.1999C3.8 93.1999 7 96.2999 7 100.5C7 104.3 3.9 107.5 0 107.5C0.3 111.3 0.7 115.5 1.4 119.4C5.2 118.4 9.1 120.8 10.1 124.3C11.1 128.1 8.7 132 5.2 133C6.6 136.8 8 140.3 9.7 144.2C13.2 142.1 17.4 143.5 19.5 147C21.6 150.5 20.2 154.7 17.1 156.8C19.2 159.9 21.6 163.1 24.4 166.2C27.2 163.4 31.7 163.4 34.5 166.2C37.3 169 37.3 173.5 34.5 176.3C37.3 178.7 40.4 181.2 43.9 183.6C46 180.1 50.2 179.1 53.7 180.8C57.2 182.9 58.2 187.1 56.1 190.6C59.6 192.3 63.1 193.7 66.9 195.1C67.9 191.3 71.8 189.2 75.6 190.2C79.4 191.2 81.5 195.1 80.5 198.9C84.3 199.6 88.2 200.3 92 200.3C92 196.5 95.1 193.3 99 193.3C102.8 193.3 106 196.4 106 200.3C109.8 200 113.7 199.6 117.5 198.9C116.5 195.1 118.9 191.2 122.4 190.2C126.2 189.2 130.1 191.6 131.1 195.1C134.9 193.7 138.4 192.3 141.9 190.6C139.8 187.1 141.2 182.9 144.3 180.8C147.8 178.7 152 180.1 154.1 183.2C157.2 181.1 160.4 178.7 163.5 175.9C160.7 173.1 160.7 168.6 163.5 165.8C166.3 163 170.8 163 173.6 165.8L180.9 156.4C177.4 154.3 176.4 150.1 178.5 146.6C180.6 143.1 184.8 142.1 188.3 143.8C190 140.3 191.4 136.5 192.8 132.6C189 131.6 186.9 127.7 187.9 123.9C188.9 120.1 192.8 118 196.6 118.7C197.3 114.9 198 111 198 106.8C194.1 107.4 191 103.9 191 100.1Z" fill="#FF2841"/>
<path d="M71.6 41.3999C65 41.3999 59.7 43.4999 55.9 47.2999C52.4 51.0999 50.7 56.3999 50.7 62.9999V138C50.7 145 52.4 149.9 55.6 153.4C59.1 156.9 64.3 158.6 71.3 158.6C77.9 158.6 82.8 156.9 86.3 153.4C89.8 149.9 91.5 144.7 91.5 138V103.1H70.6V117.1H75.8V139.1C75.8 140.5 75.5 141.5 74.4 142.2C73.4 142.9 72.3 143.6 70.6 143.6C68.5 143.6 67.5 143.3 66.8 142.2C66.5 141.2 66.1 140.1 66.1 139.1V62.6999C66.1 61.9999 66.1 61.6999 66.4 60.5999C66.4 59.8999 66.7 59.1999 67.1 58.4999C67.4 57.7999 68.1 57.4999 68.5 56.7999C69.2 56.4999 69.9 56.0999 70.9 56.0999H71.2C72.2 56.0999 72.9 56.3999 73.6 56.7999C74.3 57.0999 74.6 57.7999 75 58.4999C75.3 59.1999 75.7 59.8999 75.7 60.5999C75.7 61.2999 76 61.9999 76 62.6999V80.1999H91.7V62.6999C91.7 56.0999 90 51.1999 86.5 46.9999C83.8 43.4999 78.6 41.3999 71.6 41.3999Z" fill="white"/>
<path d="M131 42.0999H111.8L96.3999 158H113.1L116.6 129.7H126.1L129.6 158H146L131 42.0999Z" fill="white"/>
<path d="M121.5 116.1C117.7 116.1 114.5 113 114.5 109.1C114.5 105.3 117.6 102.1 121.5 102.1C125.3 102.1 128.5 105.2 128.5 109.1C128.5 113 125.4 116.1 121.5 116.1Z" fill="#FF2841"/>
</svg>
