<svg width="412" height="71" viewBox="0 0 412 71" fill="none" xmlns="http://www.w3.org/2000/svg">
<path fill-rule="evenodd" clip-rule="evenodd" d="M0.98584 22.6254V45.4093C0.98584 46.3844 1.00207 47.2945 1.0508 48.2045C1.14306 49.3455 1.33328 50.4764 1.61933 51.5847C1.93922 52.8841 2.39097 54.1474 2.96753 55.355C3.61629 56.6426 4.42393 57.8437 5.37154 58.9301C6.43632 60.1566 7.68584 61.2093 9.07503 62.0504C10.7585 63.0098 12.5763 63.711 14.4678 64.1305C16.8745 64.689 19.3394 64.9563 21.8098 64.9268C24.8163 64.9848 27.812 64.5512 30.6787 63.643C32.8524 62.9952 34.8817 61.936 36.6563 60.5228C38.0893 59.3006 39.2843 57.8241 40.1811 56.1675C40.9884 54.7485 41.59 53.2219 41.9678 51.6335C42.3169 50.1901 42.5129 48.7139 42.5526 47.2294C42.5644 46.7405 42.4161 46.2611 42.1303 45.8644C41.7828 45.4227 41.2748 45.1364 40.7171 45.068L31.3447 43.0692C30.9852 42.9799 30.6109 42.9685 30.2467 43.0358C29.8825 43.1031 29.5369 43.2474 29.233 43.4592C28.6611 43.9406 28.2901 44.619 28.1935 45.3606C28.0745 46.9613 27.4679 48.487 26.4554 49.7321C25.8269 50.2589 25.099 50.6541 24.3149 50.8942C23.5309 51.1342 22.7066 51.2143 21.891 51.1297C20.8474 51.163 19.8066 51.0033 18.821 50.6584C18.067 50.4337 17.3907 50.0027 16.8684 49.4141C16.3461 48.8255 15.9985 48.1026 15.8648 47.3269C15.632 46.4488 15.4797 45.5513 15.41 44.6455C15.3287 43.8005 15.3287 42.6466 15.3287 41.2003V29.6621C15.3287 28.8458 15.3546 28.1278 15.3771 27.5023L15.3771 27.5023V27.5022V27.5022C15.3945 27.0196 15.41 26.592 15.41 26.2169C15.4823 25.3114 15.6345 24.4141 15.8648 23.5354C16.0467 22.7566 16.4021 22.0288 16.9043 21.4065C17.444 20.8695 18.0998 20.4636 18.821 20.2202C19.8054 19.8691 20.8464 19.7038 21.891 19.7327C23.5618 19.581 25.2265 20.0819 26.5366 21.1303C27.5728 22.2977 28.1851 23.7806 28.2747 25.3393C28.4017 26.1243 28.812 26.8354 29.4279 27.3382C29.7277 27.5777 30.0779 27.7461 30.4521 27.8306C30.8263 27.915 31.2148 27.9134 31.5883 27.8257L40.7983 25.8268C41.3407 25.7054 41.8335 25.422 42.2115 25.0143C42.4973 24.6175 42.6456 24.1381 42.6338 23.6492C42.6036 22.6286 42.4895 21.6122 42.2927 20.6102C42.0865 19.5102 41.8098 18.4246 41.4643 17.36C41.1013 16.178 40.5882 15.0474 39.9374 13.9961C39.2076 12.8785 38.3399 11.8575 37.3547 10.9571C36.2012 9.91214 34.905 9.03664 33.5051 8.35696C31.8855 7.55946 30.1718 6.96978 28.4046 6.60187C26.2112 6.12889 23.9723 5.89996 21.7286 5.91931C19.2554 5.88811 16.7882 6.17211 14.3866 6.76439C12.4996 7.19864 10.6838 7.89902 8.9938 8.84452C7.59492 9.65861 6.34294 10.7024 5.29032 11.9322C4.33967 13.0104 3.5317 14.2066 2.88631 15.4912C2.31635 16.6998 1.87011 17.9629 1.55437 19.2614C1.26977 20.3645 1.07957 21.4899 0.98584 22.6254ZM47.8476 26.7526V60.7173C47.8039 61.4445 48.0425 62.1606 48.5136 62.7162C48.749 62.9629 49.0348 63.1559 49.3516 63.2821C49.6684 63.4083 50.0086 63.4647 50.3491 63.4474H59.6403C59.9716 63.5005 60.3107 63.4757 60.6308 63.375C60.9509 63.2742 61.2431 63.1002 61.4842 62.8668C61.7254 62.6334 61.9089 62.347 62.0202 62.0303C62.1315 61.7136 62.1676 61.3754 62.1255 61.0423V54.0706C62.0835 53.7375 62.1195 53.3993 62.2308 53.0826C62.3421 52.7659 62.5256 52.4795 62.7668 52.2461C63.008 52.0127 63.3002 51.8387 63.6203 51.7379C63.9403 51.6372 64.2794 51.6123 64.6108 51.6654H71.7578C72.0891 51.6123 72.4283 51.6372 72.7483 51.7379C73.0684 51.8387 73.3606 52.0127 73.6018 52.2461C73.843 52.4795 74.0265 52.7659 74.1378 53.0826C74.2491 53.3993 74.2851 53.7375 74.2431 54.0706V61.0423C74.201 61.3754 74.2371 61.7136 74.3484 62.0303C74.4597 62.347 74.6432 62.6334 74.8844 62.8668C75.1255 63.1002 75.4177 63.2742 75.7378 63.375C76.0579 63.4757 76.397 63.5005 76.7283 63.4474H86.0195C87.6763 63.4474 88.5047 62.5374 88.5047 60.7173V26.7526C88.5047 25.095 88.4723 23.6324 88.391 22.3811C88.2881 20.98 88.0763 19.589 87.7575 18.2208C87.4871 16.8595 87.045 15.538 86.4418 14.2881C85.791 13.0967 84.9763 12.0027 84.0216 11.0379C82.9811 9.91805 81.7489 8.99345 80.3831 8.3077C78.7265 7.54734 76.9798 7.00124 75.1852 6.6826C70.5507 5.8377 65.8017 5.8377 61.1672 6.6826C59.3783 7.00343 57.6373 7.54947 55.9855 8.3077C54.6269 8.98975 53.4047 9.91507 52.3795 11.0379C51.4443 12.0155 50.6366 13.1076 49.9755 14.2881C49.3422 15.5316 48.8779 16.8542 48.5948 18.2208C48.2887 19.5908 48.0824 20.9812 47.9775 22.3811C47.8476 23.6322 47.8476 25.1279 47.8476 26.7526ZM62.2757 36.4339C62.1612 36.1293 62.1101 35.8045 62.1255 35.4794L62.1418 26.8176C62.1234 25.9695 62.1778 25.1214 62.3042 24.2825C62.4262 23.6523 62.6994 23.0612 63.1001 22.5599C63.5871 21.9896 64.2403 21.586 64.9681 21.406C66.0291 21.1362 67.1225 21.0158 68.2168 21.0485C70.6858 21.0485 72.3426 21.471 73.0898 22.3323C73.9691 23.6301 74.3762 25.1905 74.2431 26.7526V35.3982C74.2821 35.7341 74.2446 36.0746 74.1335 36.394C74.0224 36.7134 73.8405 37.0035 73.6015 37.2427C73.3624 37.4818 73.0724 37.6638 72.7532 37.775C72.4339 37.8861 72.0936 37.9236 71.7578 37.8846H64.6108C63.9446 37.9212 63.2909 37.6934 62.7915 37.2508C62.5658 37.0165 62.3902 36.7385 62.2757 36.4339ZM96.3854 9.85185V61.0426C96.3613 61.3734 96.4083 61.7055 96.5231 62.0167C96.638 62.3278 96.8181 62.6107 97.0514 62.8464C97.2989 63.0713 97.5886 63.2445 97.9038 63.3561C98.2189 63.4678 98.5531 63.5154 98.8869 63.4965H108.178C108.509 63.5496 108.849 63.5248 109.169 63.424C109.489 63.3232 109.781 63.1493 110.022 62.9159C110.263 62.6825 110.447 62.396 110.558 62.0793C110.669 61.7627 110.705 61.4244 110.663 61.0913V48.2693C110.621 47.9362 110.657 47.5979 110.769 47.2812C110.88 46.9645 111.063 46.6781 111.305 46.4447C111.546 46.2113 111.838 46.0374 112.158 45.9366C112.478 45.8358 112.817 45.811 113.149 45.8641H117.128C124.449 45.8858 129.733 44.3528 132.982 41.2651C136.23 38.1774 137.855 33.3021 137.855 26.6391C137.866 19.9871 136.241 15.1117 132.982 12.0132C129.722 8.91469 124.438 7.36545 117.128 7.36545H98.8869C98.5498 7.32375 98.2077 7.35919 97.8863 7.46915C97.565 7.57911 97.2728 7.76073 97.0319 8.0002C96.791 8.23968 96.6076 8.53077 96.4956 8.85154C96.3836 9.17231 96.3459 9.51438 96.3854 9.85185ZM110.769 30.6173C110.657 30.3006 110.621 29.9624 110.663 29.6293V23.5839C110.621 23.2509 110.657 22.9126 110.769 22.5959C110.88 22.2792 111.063 21.9929 111.305 21.7595C111.546 21.5261 111.838 21.3521 112.158 21.2513C112.478 21.1505 112.817 21.1257 113.149 21.1788H117.632C118.533 21.1585 119.435 21.2129 120.328 21.3413C120.962 21.441 121.57 21.6676 122.115 22.0076C122.685 22.3902 123.095 22.9683 123.268 23.6327C123.522 24.6029 123.637 25.6042 123.609 26.6067C123.638 27.6038 123.523 28.5999 123.268 29.5644C123.104 30.2328 122.691 30.8137 122.115 31.1895C121.575 31.5415 120.965 31.7742 120.328 31.872C119.435 32.0004 118.533 32.0548 117.632 32.0345H113.149C112.817 32.0876 112.478 32.0628 112.158 31.962C111.838 31.8613 111.546 31.6872 111.305 31.4538C111.063 31.2204 110.88 30.934 110.769 30.6173ZM140.452 47.0986V47.3424C140.551 48.7752 140.784 50.1953 141.15 51.5839C141.622 53.1356 142.299 54.6169 143.165 55.9879C144.152 57.6386 145.435 59.093 146.949 60.2782C148.809 61.652 150.899 62.6813 153.122 63.3172C156.002 64.1892 158.999 64.6112 162.007 64.5685C164.488 64.585 166.963 64.3124 169.381 63.7559C171.349 63.3371 173.25 62.6538 175.034 61.7245C176.489 60.9225 177.837 59.9396 179.046 58.7994C180.11 57.8421 181.044 56.7494 181.824 55.5492C182.467 54.5197 183.011 53.4314 183.448 52.299C183.804 51.4487 184.082 50.5674 184.277 49.6663C184.399 49.1326 184.469 48.5884 184.488 48.0412C184.511 45.9676 184.113 43.9109 183.318 41.9958C182.629 40.2691 181.614 38.6912 180.329 37.348C179.056 36.0345 177.639 34.868 176.106 33.8703C174.569 32.8355 172.937 31.9485 171.233 31.2214L166.36 29.1737L161.958 27.4187C160.799 26.9817 159.705 26.3855 158.71 25.6473C157.936 25.1568 157.361 24.4085 157.085 23.5346V23.1284C157.088 22.6998 157.197 22.2786 157.401 21.9017C157.604 21.5249 157.898 21.2039 158.255 20.967C159.326 20.1577 160.651 19.7598 161.991 19.8457C163.731 19.7709 165.446 20.28 166.864 21.292C167.501 21.753 168.039 22.3372 168.446 23.0099C168.853 23.6826 169.122 24.4302 169.235 25.2085C169.463 26.6061 170.145 27.2886 171.314 27.2886C171.539 27.2928 171.763 27.2655 171.98 27.2074L181.499 25.2735C182.098 25.2239 182.655 24.9473 183.057 24.5002C183.458 24.0531 183.674 23.4693 183.659 22.8683V22.6246C183.539 21.3044 183.272 20.0017 182.863 18.7406C182.337 17.2004 181.611 15.7361 180.703 14.3853C179.703 12.7957 178.427 11.3979 176.935 10.2576C175.077 8.92685 172.998 7.93641 170.795 7.33236C167.968 6.50163 165.034 6.09635 162.088 6.1298C159.741 6.10339 157.4 6.37088 155.12 6.92609C153.296 7.3492 151.544 8.03919 149.922 8.97373C148.605 9.77699 147.407 10.7617 146.365 11.8989C145.44 12.8664 144.658 13.9608 144.042 15.1491C143.521 16.1897 143.103 17.2782 142.791 18.3993C142.532 19.2613 142.336 20.1413 142.206 21.032C142.137 21.571 142.099 22.1137 142.093 22.6571C142.051 24.9726 142.516 27.2691 143.457 29.385C144.278 31.2604 145.51 32.9267 147.063 34.2603C148.571 35.5083 150.204 36.5975 151.936 37.5105C153.714 38.4646 155.56 39.2848 157.459 39.9645C159.343 40.6307 161.049 41.2483 162.592 41.8333C163.982 42.3953 165.306 43.1093 166.539 43.9622C167.491 44.509 168.2 45.398 168.521 46.4486V46.9199C168.488 47.4501 168.322 47.9635 168.038 48.4124C167.754 48.8613 167.361 49.2311 166.896 49.4875C165.468 50.4789 163.76 50.9858 162.023 50.9339C160.211 50.9976 158.435 50.4224 157.004 49.3088C156.332 48.7684 155.781 48.0928 155.386 47.3258C154.992 46.5587 154.762 45.7173 154.714 44.856C154.551 43.4096 153.885 42.6946 152.732 42.6946C152.483 42.6732 152.233 42.6732 151.985 42.6946L142.596 44.6935C141.999 44.7432 141.443 45.0204 141.044 45.468C140.645 45.9155 140.433 46.4992 140.452 47.0986ZM238.775 9.76978V61.0418C238.755 61.3634 238.803 61.6855 238.915 61.9877C239.027 62.2898 239.2 62.5654 239.424 62.7969C239.668 63.022 239.955 63.1956 240.268 63.3073C240.58 63.419 240.912 63.4665 241.244 63.4469H274.023C274.354 63.5 274.693 63.4752 275.013 63.3745C275.333 63.2737 275.625 63.0997 275.867 62.8663C276.108 62.6329 276.291 62.3465 276.403 62.0298C276.514 61.7131 276.55 61.3749 276.508 61.0418V52.0712C276.55 51.7381 276.514 51.3999 276.403 51.0832C276.291 50.7665 276.108 50.4801 275.867 50.2467C275.625 50.0133 275.333 49.8393 275.013 49.7385C274.693 49.6377 274.354 49.6129 274.023 49.6661H255.538C255.206 49.6866 254.874 49.6395 254.561 49.5278C254.249 49.416 253.962 49.242 253.718 49.016C253.489 48.7877 253.311 48.5131 253.196 48.2104C253.081 47.9077 253.032 47.584 253.053 47.2609V9.76978C253.095 9.43673 253.059 9.09846 252.947 8.78176C252.836 8.46507 252.652 8.17871 252.411 7.94531C252.17 7.71191 251.878 7.5379 251.558 7.43712C251.238 7.33633 250.899 7.31153 250.567 7.36466H241.26C240.928 7.31153 240.589 7.33633 240.269 7.43712C239.949 7.5379 239.657 7.71191 239.416 7.94531C239.175 8.17871 238.991 8.46507 238.88 8.78176C238.769 9.09846 238.732 9.43673 238.775 9.76978ZM267.137 9.2019C267.112 9.46676 267.112 9.73333 267.137 9.99819L279.254 61.3352C279.355 61.9675 279.693 62.5373 280.201 62.9273C280.709 63.3173 281.346 63.4977 281.983 63.4316H297.414C298.053 63.4981 298.692 63.3181 299.203 62.9284C299.713 62.5388 300.055 61.9689 300.159 61.3352L312.358 9.99819C312.41 9.73588 312.437 9.4693 312.439 9.2019C312.461 8.79956 312.341 8.40233 312.098 8.08058C311.857 7.82424 311.56 7.6265 311.231 7.50256C310.901 7.37862 310.548 7.33176 310.198 7.36553H300.322C299.688 7.29896 299.052 7.47718 298.545 7.8638C298.037 8.25043 297.697 8.81628 297.593 9.44566L290.283 40.2088C290.269 40.2987 290.235 40.3844 290.185 40.4601C290.134 40.5358 290.068 40.5997 289.991 40.6476C289.93 40.6868 289.86 40.7077 289.788 40.7077C289.716 40.7077 289.645 40.6868 289.585 40.6476C289.508 40.5997 289.441 40.5358 289.391 40.4601C289.34 40.3844 289.307 40.2987 289.292 40.2088L281.983 9.44566C281.879 8.81628 281.538 8.25043 281.031 7.8638C280.524 7.47718 279.888 7.29896 279.254 7.36553H269.378C269.025 7.33287 268.67 7.3802 268.338 7.504C268.006 7.6278 267.707 7.82488 267.461 8.08058C267.232 8.40799 267.118 8.80244 267.137 9.2019ZM317.911 9.76978V61.0418C317.894 61.3646 317.944 61.6874 318.059 61.9896C318.174 62.2918 318.35 62.5668 318.577 62.7969C318.821 63.0228 319.107 63.1969 319.42 63.3087C319.733 63.4204 320.065 63.4674 320.396 63.4469H355.238C356.911 63.4469 357.74 62.6669 357.74 61.0418V52.0712C357.74 50.4623 356.863 49.6661 355.238 49.6661H335.162C334.83 49.6856 334.498 49.6382 334.186 49.5265C333.873 49.4148 333.586 49.2412 333.342 49.016C333.115 48.7859 332.939 48.511 332.824 48.2088C332.71 47.9065 332.659 47.5837 332.676 47.2609V44.6933C332.634 44.3602 332.67 44.0219 332.782 43.7052C332.893 43.3886 333.076 43.1021 333.318 42.8687C333.559 42.6353 333.851 42.4613 334.171 42.3606C334.491 42.2598 334.83 42.235 335.162 42.2881H348.026C348.358 42.3412 348.697 42.3164 349.017 42.2156C349.337 42.1149 349.629 41.9408 349.87 41.7075C350.111 41.474 350.295 41.1877 350.406 40.871C350.518 40.5543 350.554 40.216 350.512 39.8829V30.9124C350.554 30.5793 350.518 30.2411 350.406 29.9244C350.295 29.6077 350.111 29.3213 349.87 29.0879C349.629 28.8545 349.337 28.6805 349.017 28.5797C348.697 28.4789 348.358 28.4541 348.026 28.5072H335.162C334.83 28.5603 334.491 28.5355 334.171 28.4348C333.851 28.334 333.559 28.16 333.318 27.9266C333.076 27.6932 332.893 27.4068 332.782 27.0901C332.67 26.7734 332.634 26.4351 332.676 26.1021V23.5507C332.634 23.2176 332.67 22.8793 332.782 22.5627C332.893 22.246 333.076 21.9595 333.318 21.7261C333.559 21.4927 333.851 21.3188 334.171 21.218C334.491 21.1172 334.83 21.0924 335.162 21.1455H355.238C356.911 21.1455 357.74 20.3655 357.74 18.7404V9.76978C357.74 8.16093 356.863 7.36466 355.238 7.36466H320.396C320.065 7.31153 319.726 7.33633 319.406 7.43712C319.086 7.5379 318.794 7.71191 318.552 7.94531C318.311 8.17871 318.128 8.46507 318.016 8.78176C317.905 9.09846 317.869 9.43673 317.911 9.76978ZM189.637 25.3871V45.4083C189.637 46.3834 189.669 47.2935 189.751 48.2035C189.843 49.3445 190.033 50.4754 190.319 51.5837C190.635 52.877 191.081 54.1347 191.651 55.3377C192.294 56.6287 193.102 57.8306 194.055 58.9129C195.118 60.1353 196.361 61.1875 197.742 62.0331C199.429 62.9869 201.245 63.6877 203.135 64.1132C207.978 65.1749 212.993 65.1749 217.835 64.1132C219.725 63.6877 221.542 62.9869 223.228 62.0331C224.609 61.1875 225.853 60.1353 226.915 58.9129C227.868 57.8306 228.677 56.6287 229.319 55.3377C229.889 54.1347 230.336 52.877 230.651 51.5837C230.934 50.4643 231.119 49.3224 231.204 48.171C231.301 47.2935 231.301 46.3834 231.301 45.4083V25.3871C231.301 24.8971 231.276 24.415 231.251 23.9441C231.227 23.4938 231.204 23.0533 231.204 22.6244C231.11 21.4889 230.92 20.3635 230.635 19.2604C230.319 17.9619 229.873 16.6988 229.303 15.4902C228.664 14.2021 227.855 13.0052 226.899 11.9312C225.849 10.7054 224.603 9.6621 223.212 8.84354C221.519 7.9035 219.704 7.20343 217.819 6.76341C212.984 5.63678 207.954 5.63678 203.119 6.76341C201.234 7.20343 199.419 7.9035 197.726 8.84354C196.335 9.6621 195.089 10.7054 194.039 11.9312C193.083 13.0052 192.274 14.2021 191.635 15.4902C191.065 16.6988 190.619 17.9619 190.303 19.2604C190.018 20.3635 189.828 21.4889 189.734 22.6244C189.637 23.5019 189.637 24.4283 189.637 25.3871ZM214.293 28.037L213.319 18.8714C213.523 18.8409 213.709 18.7394 213.846 18.5849C213.983 18.4304 214.061 18.2326 214.066 18.0263V16.3037C214.064 16.1885 214.039 16.0748 213.993 15.9691C213.947 15.8634 213.881 15.7679 213.798 15.6879C213.715 15.6079 213.617 15.545 213.51 15.5029C213.402 15.4608 213.288 15.4403 213.173 15.4424H208.3C208.065 15.438 207.839 15.5258 207.669 15.6869C207.499 15.848 207.398 16.0695 207.39 16.3037V18.0263C207.397 18.2418 207.481 18.4476 207.627 18.6059C207.773 18.7642 207.972 18.8642 208.186 18.8876L206.838 27.9232C205.849 28.3001 204.997 28.9674 204.394 29.8375C203.791 30.7076 203.465 31.7398 203.459 32.7985V49.5858C203.465 49.9315 203.54 50.2726 203.678 50.5896C203.816 50.9066 204.015 51.1933 204.264 51.4332C204.513 51.6732 204.807 51.8617 205.128 51.9881C205.45 52.1144 205.794 52.1762 206.139 52.1697H214.667C215.013 52.1762 215.356 52.1144 215.678 51.9881C216 51.8617 216.293 51.6732 216.542 51.4332C216.791 51.1933 216.99 50.9066 217.128 50.5896C217.266 50.2726 217.341 49.9315 217.347 49.5858V32.7822C217.345 31.782 217.056 30.8034 216.515 29.9624C215.973 29.1214 215.202 28.4532 214.293 28.037ZM398.638 42.7327C397.918 43.0871 396.971 43.5526 397.064 43.8416C398.376 45.5273 399.748 47.1683 401.119 48.8085C401.62 49.4076 402.121 50.007 402.619 50.6081C403.108 51.2046 403.615 51.7815 404.119 52.3564C404.99 53.3474 405.854 54.3325 406.615 55.4021C407.656 56.7297 408.258 58.3484 408.337 60.0337C408.369 60.701 408.228 61.3654 407.93 61.9629C407.631 62.5605 407.184 63.0713 406.631 63.4464C405.219 64.4505 403.679 65.2595 402.051 65.8515C401.081 66.1831 400.029 66.1913 399.054 65.8749C398.079 65.5585 397.233 64.9345 396.642 64.0964C395.675 62.9003 394.943 61.5332 394.481 60.0662C394.114 58.9651 393.753 57.864 393.392 56.7629C392.2 53.1275 391.008 49.492 389.607 45.8566L384.478 45.8312H381.229C380.888 45.815 380.547 45.8669 380.226 45.9841C379.905 46.1013 379.611 46.2814 379.361 46.5138C379.125 46.7491 378.941 47.0312 378.821 47.3418C378.701 47.6525 378.647 47.9849 378.662 48.3177V60.9772C378.675 61.3111 378.618 61.6439 378.495 61.9545C378.372 62.265 378.186 62.5466 377.948 62.7811C377.697 63.0135 377.403 63.1935 377.083 63.3107C376.762 63.4279 376.421 63.4799 376.08 63.4636H366.789C366.1 63.4929 365.428 63.2474 364.921 62.7811C364.685 62.5458 364.501 62.2637 364.381 61.953C364.26 61.6424 364.206 61.31 364.222 60.9772V9.8515C364.206 9.51872 364.26 9.18629 364.381 8.87564C364.501 8.56498 364.685 8.28294 364.921 8.04761C365.428 7.58133 366.1 7.33585 366.789 7.3651H384.965C392.258 7.3651 397.553 8.90892 400.802 12.0129C404.051 15.1168 405.675 19.9596 405.675 26.6388C405.675 34.2226 403.574 39.4554 399.373 42.3373C399.264 42.425 398.976 42.5666 398.638 42.7327ZM374.7 32.4012C375.542 33.7419 376.804 34.5394 378.301 34.9827C378.382 35.009 378.462 35.0368 378.542 35.0646C378.722 35.1271 378.902 35.1896 379.086 35.2347C380.145 35.4955 380.948 35.1352 381.381 34.1796C381.631 33.622 381.821 33.0393 381.949 32.4415C382.101 31.7403 382.42 31.1533 383.079 30.8024C384.432 30.0853 385.795 29.3854 387.177 28.7231C387.479 28.5675 387.815 28.488 388.155 28.4913C388.495 28.4947 388.829 28.5809 389.129 28.7425C389.557 28.9642 390.004 29.1468 390.465 29.2879C391.66 29.6542 392.454 29.3355 393.056 28.2444C393.836 26.8296 393.966 25.3154 393.638 23.7683C393.311 22.2213 392.571 20.9248 391.285 19.9789C389.464 18.644 387.382 18.2046 385.172 18.3089C383.199 18.4013 381.368 19.0114 379.649 19.9739C378.436 20.6541 377.312 21.4559 376.384 22.4993C375.106 23.9358 374.094 25.5242 373.755 27.4542C373.445 29.2156 373.748 30.8839 374.7 32.4012Z" fill="#191C1B"/>
</svg>
