<svg width="59" height="19" viewBox="0 0 59 19" fill="none" xmlns="http://www.w3.org/2000/svg">
<path d="M0.0383789 17.28V1.92C0.0383789 1.44 0.278379 1.2 0.758379 1.2H5.72638C6.14238 1.2 6.39838 1.416 6.49438 1.848L8.19838 8.832C8.23038 8.944 8.27838 9 8.34238 9C8.40638 9 8.45438 8.944 8.48638 8.832L10.1904 1.848C10.2864 1.416 10.5424 1.2 10.9584 1.2H15.9264C16.4064 1.2 16.6464 1.44 16.6464 1.92V17.28C16.6464 17.76 16.4064 18 15.9264 18H13.2384C13.0144 18 12.8384 17.936 12.7104 17.808C12.5824 17.68 12.5184 17.504 12.5184 17.28V7.824C12.5184 7.744 12.4784 7.704 12.3984 7.704C12.3344 7.688 12.2864 7.72 12.2544 7.8L9.92638 17.376C9.83038 17.792 9.56638 18 9.13438 18H7.55038C7.11838 18 6.85438 17.792 6.75838 17.376L4.43038 7.8C4.39838 7.72 4.34238 7.688 4.26238 7.704C4.19838 7.704 4.16638 7.744 4.16638 7.824V17.28C4.16638 17.76 3.92638 18 3.44638 18H0.758379C0.278379 18 0.0383789 17.76 0.0383789 17.28ZM18.8062 12.6V6.6C18.8062 6.312 18.8142 6.04 18.8302 5.784C18.8462 5.512 18.9022 5.176 18.9982 4.776C19.0942 4.36 19.2222 3.984 19.3822 3.648C19.5422 3.296 19.7742 2.936 20.0782 2.568C20.3822 2.2 20.7342 1.896 21.1342 1.656C21.5502 1.4 22.0702 1.192 22.6942 1.032C23.3342 0.855999 24.0462 0.767999 24.8302 0.767999C25.6142 0.767999 26.3182 0.855999 26.9422 1.032C27.5822 1.192 28.1022 1.4 28.5022 1.656C28.9182 1.896 29.2782 2.2 29.5822 2.568C29.8862 2.936 30.1182 3.296 30.2782 3.648C30.4382 3.984 30.5662 4.36 30.6622 4.776C30.7582 5.176 30.8142 5.512 30.8302 5.784C30.8462 6.04 30.8542 6.312 30.8542 6.6V12.6C30.8542 12.888 30.8462 13.168 30.8302 13.44C30.8142 13.696 30.7582 14.032 30.6622 14.448C30.5662 14.848 30.4382 15.224 30.2782 15.576C30.1182 15.912 29.8862 16.264 29.5822 16.632C29.2782 17 28.9182 17.312 28.5022 17.568C28.1022 17.824 27.5822 18.032 26.9422 18.192C26.3182 18.352 25.6142 18.432 24.8302 18.432C24.0462 18.432 23.3342 18.352 22.6942 18.192C22.0702 18.032 21.5502 17.824 21.1342 17.568C20.7342 17.312 20.3822 17 20.0782 16.632C19.7742 16.264 19.5422 15.912 19.3822 15.576C19.2222 15.224 19.0942 14.848 18.9982 14.448C18.9022 14.032 18.8462 13.696 18.8302 13.44C18.8142 13.168 18.8062 12.888 18.8062 12.6ZM22.9342 11.328C22.9342 11.76 22.9422 12.104 22.9582 12.36C22.9742 12.616 23.0142 12.888 23.0782 13.176C23.1582 13.448 23.2622 13.656 23.3902 13.8C23.5182 13.944 23.7022 14.064 23.9422 14.16C24.1822 14.256 24.4782 14.304 24.8302 14.304C25.1822 14.304 25.4782 14.256 25.7182 14.16C25.9582 14.064 26.1422 13.944 26.2702 13.8C26.3982 13.656 26.4942 13.448 26.5582 13.176C26.6382 12.888 26.6862 12.616 26.7022 12.36C26.7182 12.104 26.7262 11.76 26.7262 11.328V7.872C26.7262 7.44 26.7182 7.096 26.7022 6.84C26.6862 6.584 26.6382 6.32 26.5582 6.048C26.4942 5.76 26.3982 5.544 26.2702 5.4C26.1422 5.256 25.9582 5.136 25.7182 5.04C25.4782 4.944 25.1822 4.896 24.8302 4.896C24.4782 4.896 24.1822 4.944 23.9422 5.04C23.7022 5.136 23.5182 5.256 23.3902 5.4C23.2622 5.544 23.1582 5.76 23.0782 6.048C23.0142 6.32 22.9742 6.584 22.9582 6.84C22.9422 7.096 22.9342 7.44 22.9342 7.872V11.328ZM33.0149 17.256V1.944C33.0149 1.72 33.0789 1.544 33.2069 1.416C33.3509 1.272 33.5349 1.2 33.7589 1.2H39.0149C41.1269 1.2 42.6549 1.664 43.5989 2.592C44.5429 3.52 45.0149 4.976 45.0149 6.96C45.0149 9.232 44.4069 10.8 43.1909 11.664C43.0949 11.744 43.0709 11.848 43.1189 11.976L45.6629 16.704C45.7589 16.864 45.8069 17.016 45.8069 17.16C45.7909 17.304 45.7429 17.44 45.6629 17.568C45.4869 17.856 45.2229 18 44.8709 18H42.1349C41.8789 18 41.6949 17.888 41.5829 17.664L39.0869 12.84C39.0389 12.76 38.9749 12.72 38.8949 12.72H37.9349C37.7109 12.72 37.5269 12.792 37.3829 12.936C37.2549 13.064 37.1909 13.24 37.1909 13.464V17.256C37.1909 17.48 37.1189 17.664 36.9749 17.808C36.8469 17.936 36.6709 18 36.4469 18H33.7589C33.5349 18 33.3509 17.936 33.2069 17.808C33.0789 17.664 33.0149 17.48 33.0149 17.256ZM37.1909 7.848C37.1909 8.072 37.2549 8.256 37.3829 8.4C37.5269 8.528 37.7109 8.592 37.9349 8.592H39.1589C39.4949 8.592 39.7509 8.576 39.9269 8.544C40.1189 8.512 40.2949 8.448 40.4549 8.352C40.6149 8.24 40.7269 8.072 40.7909 7.848C40.8549 7.624 40.8869 7.328 40.8869 6.96C40.8869 6.592 40.8549 6.296 40.7909 6.072C40.7269 5.848 40.6149 5.688 40.4549 5.592C40.2949 5.48 40.1189 5.408 39.9269 5.376C39.7509 5.344 39.4949 5.328 39.1589 5.328H37.9349C37.7109 5.328 37.5269 5.4 37.3829 5.544C37.2549 5.672 37.1909 5.848 37.1909 6.072V7.848ZM47.2415 17.28V1.92C47.2415 1.44 47.4815 1.2 47.9615 1.2H58.0415C58.5215 1.2 58.7615 1.44 58.7615 1.92V4.608C58.7615 5.088 58.5215 5.328 58.0415 5.328H52.2335C51.7535 5.328 51.5135 5.568 51.5135 6.048V6.816C51.5135 7.296 51.7535 7.536 52.2335 7.536H55.9535C56.4335 7.536 56.6735 7.776 56.6735 8.256V10.944C56.6735 11.424 56.4335 11.664 55.9535 11.664H52.2335C51.7535 11.664 51.5135 11.904 51.5135 12.384V13.152C51.5135 13.376 51.5775 13.552 51.7055 13.68C51.8335 13.808 52.0095 13.872 52.2335 13.872H58.0415C58.5215 13.872 58.7615 14.112 58.7615 14.592V17.28C58.7615 17.76 58.5215 18 58.0415 18H47.9615C47.7375 18 47.5615 17.936 47.4335 17.808C47.3055 17.68 47.2415 17.504 47.2415 17.28Z" fill="black"/>
</svg>
